<svg version="1.1" xmlns="http://www.w3.org/2000/svg" width="32" height="32" viewBox="0 0 32 32">
<path d="M4.875 15l-0.375-0.5c4.625-1 6.75 0.375 6.375 4.25v0c-0.25 3.125-1.5 4.875-3.875 5.25v0c-0.625 0-1.375-0.25-2.25-0.875v0c-0.25-0.125-0.375-0.125-0.25 0v0c-0.875-0.625-1.5-1-1.875-1v0c-0.75 0.125-1.125 0.625-1.25 1.5v0c0.125 1.125 1.25 1.75 3.5 1.875v0c5.875-0.25 8.875-2.75 9.125-7.625v0c0-3.25-1.5-5.125-4.625-5.5v0c2.125-1.5 3.25-3.125 3.25-5v0c-0.125-3-1.75-4.5-5-4.625v0c-2.875 0.125-5 2.125-6.375 6l0.75 0.375c1.625-2.5 3.375-3.75 5.25-3.625v0c1.625 0 2.5 1 2.5 3v0c0.125 2.375-1.625 4.25-5.125 5.5l0.25 1z"></path>
</svg>
