<svg version="1.1" xmlns="http://www.w3.org/2000/svg" width="32" height="32" viewBox="0 0 32 32">
<path d="M13.875 2.875h-0.125c-7.875 1.5-12.125 6.125-12.75 14v0c0.125 5.625 2.375 8.5 6.75 8.625v0c4.125-0.375 6.375-2.75 6.75-7.125v0c-0.25-4.25-2.25-6.5-5.875-6.75v0c-1.5 0-2.875 0.625-4.125 1.75v0c0.875-4.875 4-8 9.375-9.5v-1zM7.5 13.5c2.75-0.125 4.125 1.75 4 5.5v0c0 3.75-1.25 5.625-3.625 5.75v0c-2.375 0.125-3.625-2.125-3.75-6.625v0c-0.125-0.875-0.125-2 0-3.5v0c1.125-0.75 2.25-1.125 3.375-1.125v0z"></path>
</svg>
