<svg version="1.1" xmlns="http://www.w3.org/2000/svg" width="32" height="32" viewBox="0 0 32 32">
<path d="M0.875 20.625q0-1.5 0.75-2.938t2.5-2.313q-1.5-0.875-2-1.938t-0.563-2.438 0.375-2.375 1.313-1.875 1.938-1.188 2.313-0.313 2.25 0.25 2.125 1.063 1.625 2.313-0.063 3.5-2.938 3.125q2.125 0.625 3 1.938t0.875 3.188-0.563 3-1.25 1.875-1.875 1.188-3 0.438-3.125-0.438-2.188-1.313-1.188-2.063-0.313-2.688zM3.438 20.5q-0.063 1.5 0.5 2.625t2.063 1.438 3.125-0.063 2.25-1.75 0.438-2.75-1.563-2.313-3-0.813-2.688 1.125-1.125 2.5zM3.875 10.75q0 1.25 0.875 2.375t2.75 1.125 2.813-1.125 0.875-2.688-1.125-2.313-2.875-0.625-2.563 1.063-0.75 2.188z"></path>
</svg>
