<svg version="1.1" xmlns="http://www.w3.org/2000/svg" width="32" height="32" viewBox="0 0 32 32">
<path d="M6.75 15.125l-0.125-0.25c3.375 1.875 5.125 3.75 5.125 5.625v0c-0.125 2.375-1.375 3.75-3.75 4v0c-2.625-0.125-4-1.625-4.125-4.5v0c-0.125-1.875 0.875-3.5 2.875-4.875v0zM7.625 25.375c4.125-0.125 6.25-2 6.375-5.625v0c0.125-2.75-1.5-5-4.875-6.875v0c2.625-1.625 3.875-3.375 3.75-5.375v0c-0.25-3-2.125-4.625-5.5-4.875v0c-3.625 0.25-5.5 2-5.75 5.375v0c-0.125 2.25 1.125 4.25 3.75 6v0c-2.875 1.875-4.25 4-4.125 6.25v0c0.375 3.125 2.5 4.875 6.375 5.125v0zM4.25 6.875h-0.125c0.125-2 1.125-3.125 3-3.25v0c2.375 0.125 3.625 1.375 3.75 3.625v0c0 1.75-1 3.375-2.875 4.875v0c-2.625-1.75-3.875-3.5-3.75-5.25v0z"></path>
</svg>
